<?xml version="1.0" encoding="utf-8"?>
<!-- Generator: Adobe Illustrator 23.0.2, SVG Export Plug-In . SVG Version: 6.00 Build 0)  -->
<svg version="1.1" id="Слой_1" xmlns="http://www.w3.org/2000/svg" xmlns:xlink="http://www.w3.org/1999/xlink" x="0px" y="0px"
	 viewBox="0 0 345.6 40.8" style="enable-background:new 0 0 345.6 40.8;" xml:space="preserve">
<style type="text/css">
	.st0{fill:#009BFD;}
	.st1{fill:#004BE2;}
	.st2{fill:#002ADD;}
	.st3{fill:#FFFFFF;}
	.st4{fill:#8fa5bf;}
</style>
<g>
	<circle class="st0" cx="38.2" cy="18.5" r="14.5"/>
	<path class="st1" d="M40.7,18.4c0-8-6.5-14.4-14.5-14.4c-0.1,0-0.1,0-0.2,0c0,0,0,0-0.1,0H11.7c-0.4,0-0.5,0.4-0.5,1v30
		c0,0.6,0.3,1,0.8,1h0.1c0.3,0,0.6-0.3,0.7-0.8c0.2-1.1,0.9-1.8,1.2-2c0.1-0.1,0.3-0.2,0.4-0.2h10.9c0.4,0,0.7,0,1.1-0.1
		C34.3,32.8,40.7,26.3,40.7,18.4z"/>
	<path class="st2" d="M32.2,5.3c-5,2.3-8.5,7.3-8.5,13.2c0,5.8,3.4,10.8,8.4,13.1c5.1-2.3,8.6-7.3,8.6-13.2
		C40.7,12.6,37.2,7.5,32.2,5.3z"/>
</g>
<g>
	<path class="st3" d="M68.3,22.4V30h-5.8V7.9h9.2c4.4,0,7.4,2.8,7.4,7.2s-3,7.3-7.4,7.3H68.3z M68.3,17.5h2.1c1.2,0,2.4-0.5,2.4-2.4
		c0-1.9-1.2-2.3-2.4-2.3h-2.1V17.5z"/>
	<path class="st3" d="M81,21.9c0-4.9,2.9-8.5,8-8.5s8,3.6,8,8.5s-2.9,8.4-8,8.4S81,26.8,81,21.9z M86.3,21.9c0,2.6,0.8,4.1,2.6,4.1
		s2.6-1.5,2.6-4.1s-0.8-4.1-2.6-4.1C87.1,17.8,86.3,19.3,86.3,21.9z"/>
	<path class="st3" d="M104,21.9c0,2.6,1.1,4.1,3.4,4.1c1.2,0,2.4-0.4,3.5-0.9l1.6,3.8c-2.1,1.1-4.1,1.5-6,1.5c-5,0-7.8-3.6-7.8-8.4
		c0-4.9,2.8-8.5,8.1-8.5c1.9,0,3.1,0.1,4.7,0.7l-0.3,4.3c-1.9-0.6-2.8-0.7-3.7-0.7C105.1,17.8,104,19.3,104,21.9z"/>
	<path class="st3" d="M117.9,6.9h1.3v12.2l4.4-5.3h6.2l-5.6,6.6l6.2,9.7H124l-3.6-5.9l-1.2,1.4V30H114V7.6L117.9,6.9z"/>
	<path class="st3" d="M146.6,20.6c0,0.8-0.1,1.7-0.2,2.6h-9.3c0.2,1.8,1.8,2.9,3.6,2.9c1.2,0,2.9-0.4,4-0.9l1.4,3.7
		c-2.1,1.1-4.4,1.5-6.3,1.5c-5,0-8.1-3.6-8.1-8.4c0-4.9,2.8-8.5,8.1-8.5C144.9,13.4,146.6,16.5,146.6,20.6z M137.2,19.9h4.4
		c0-0.1,0-0.3,0-0.4c0-0.9-0.5-1.8-1.8-1.8C138.4,17.7,137.3,18.5,137.2,19.9z"/>
	<path class="st3" d="M149.4,17.7h-1.6v-2.6l1.6-1.3l2.6-3.9h2.6v3.9h3.7v3.9h-3.7v6.9c0,1,0.2,1.5,1.3,1.5c0.3,0,1.2-0.2,1.7-0.4
		l0.9,4c-1,0.4-3.1,0.7-4,0.7c-3.7,0-5.1-1.7-5.1-4.9L149.4,17.7L149.4,17.7z"/>
</g>
<g>
	<path class="st3" d="M265.4,20.5c1.7,0.8,2.8,2.2,3.6,3.8l2.9,5.7h-6.7l-3.3-6.4c-0.6-1.3-0.9-1.5-1.9-1.5h-0.7v8h-5.9V7.9h9.2
		c4.4,0,7.4,2.4,7.4,6.8c0,2.9-2,5-4.7,5.7L265.4,20.5L265.4,20.5z M259.3,17.5h2.1c1.2,0,2.4-0.5,2.4-2.4c0-1.9-1.2-2.3-2.4-2.3
		h-2.1V17.5z"/>
	<path class="st3" d="M272.8,21.9c0-4.9,2.9-8.5,8-8.5s8,3.6,8,8.5s-2.9,8.4-8,8.4S272.8,26.8,272.8,21.9z M278.1,21.9
		c0,2.6,0.8,4.1,2.6,4.1s2.6-1.5,2.6-4.1s-0.8-4.1-2.6-4.1C278.9,17.8,278.1,19.3,278.1,21.9z"/>
	<path class="st3" d="M294.6,6.9h1.3V16h0.1c0.6-1.6,2-2.6,3.8-2.6c3.9,0,6,3.9,6,8.5c0,4.6-2.4,8.4-6.5,8.4c-1.2,0-2.4-0.5-3.4-1.8
		h-0.1l-1.3,1.5h-3.9V7.6L294.6,6.9z M298.1,17.8c-1.5,0-2.1,1.1-2.1,2.4v5c0.3,0.3,1,0.7,2,0.7c2,0,2.6-1.8,2.6-4.1
		S299.9,17.8,298.1,17.8z"/>
	<path class="st3" d="M307.6,21.9c0-4.9,2.9-8.5,8-8.5s8,3.6,8,8.5s-2.9,8.4-8,8.4S307.6,26.8,307.6,21.9z M313,21.9
		c0,2.6,0.8,4.1,2.6,4.1s2.6-1.5,2.6-4.1s-0.8-4.1-2.6-4.1S313,19.3,313,21.9z"/>
	<path class="st3" d="M326.7,17.7h-1.6v-2.6l1.6-1.3l2.6-3.9h2.6v3.9h3.7v3.9h-3.7v6.9c0,1,0.2,1.5,1.3,1.5c0.3,0,1.2-0.2,1.7-0.4
		l0.9,4c-1,0.4-3.1,0.7-4,0.7c-3.7,0-5.1-1.7-5.1-4.9V17.7z"/>
</g>
<g>
	<path class="st4" d="M172.1,30.3c-1.4,0-2.7-0.2-3.9-0.7s-2.2-1.2-3.1-2.1c-0.9-0.9-1.5-2.1-2-3.5s-0.7-3-0.7-4.9
		c0-1.8,0.2-3.5,0.7-4.9c0.5-1.4,1.2-2.6,2-3.5c0.9-0.9,1.9-1.7,3.1-2.2c1.2-0.5,2.5-0.7,3.8-0.7s2.7,0.2,3.8,0.7s2.2,1.2,3,2.1
		s1.5,2.1,2,3.5c0.5,1.4,0.7,3,0.7,4.8c0,1.9-0.2,3.5-0.7,4.9s-1.1,2.6-2,3.5c-0.9,0.9-1.9,1.7-3,2.2
		C174.8,30.1,173.5,30.3,172.1,30.3z M172.1,28.7c1.3,0,2.4-0.2,3.3-0.7c1-0.5,1.8-1.1,2.4-2c0.6-0.8,1.1-1.9,1.5-3
		c0.3-1.2,0.5-2.5,0.5-3.9s-0.2-2.7-0.5-3.9s-0.8-2.2-1.5-3s-1.5-1.5-2.4-2s-2.1-0.7-3.3-0.7c-1.3,0-2.4,0.2-3.4,0.7s-1.8,1.1-2.4,2
		c-0.6,0.8-1.1,1.9-1.5,3c-0.3,1.2-0.5,2.5-0.5,3.9s0.2,2.7,0.5,3.9c0.3,1.2,0.8,2.2,1.5,3c0.6,0.8,1.5,1.5,2.4,2
		C169.7,28.5,170.8,28.7,172.1,28.7z"/>
	<path class="st4" d="M185.5,14.3h1.7v2.3c0.7-0.9,1.5-1.6,2.3-2.1s1.9-0.7,3.1-0.7c1.1,0,2.1,0.2,3,0.6c0.8,0.4,1.5,1,2.1,1.7
		c0.6,0.7,1,1.6,1.2,2.6c0.3,1,0.4,2,0.4,3.2c0,1.3-0.2,2.5-0.5,3.5c-0.3,1-0.8,1.9-1.4,2.6c-0.6,0.7-1.3,1.3-2.2,1.7
		c-0.9,0.4-1.8,0.6-2.9,0.6c-0.9,0-1.9-0.2-2.7-0.6c-0.9-0.4-1.7-1.1-2.4-2v7.9h-1.7L185.5,14.3L185.5,14.3z M187.2,22.7
		c0,0.7,0,1.3,0.1,1.8s0.2,1,0.4,1.4s0.4,0.8,0.6,1.1c0.3,0.3,0.6,0.6,1,0.8c0.5,0.4,0.9,0.6,1.4,0.8c0.5,0.2,1,0.2,1.6,0.2
		c0.7,0,1.4-0.1,2-0.4s1.1-0.7,1.6-1.2c0.4-0.5,0.8-1.3,1.1-2.1s0.4-1.9,0.4-3.2c0-1.3-0.1-2.3-0.4-3.2c-0.3-0.8-0.7-1.5-1.1-2
		s-1-0.9-1.6-1.1s-1.1-0.3-1.7-0.3c-0.6,0-1.2,0.1-1.7,0.2s-1,0.4-1.5,0.8c-0.7,0.5-1.3,1.2-1.6,2s-0.6,1.8-0.6,3V22.7z"/>
	<path class="st4" d="M203.6,15.8h-2.4v-1.4h2.4v-4.3h1.7v4.3h4.4v1.4h-4.4v10.1c0,0.8,0.2,1.4,0.5,1.9s0.9,0.8,1.7,0.8
		c0.5,0,1,0,1.3-0.1s0.7-0.2,1-0.3l0.4,1.4c-0.3,0.1-0.7,0.2-1.1,0.3c-0.4,0.1-1,0.2-1.7,0.2c-0.9,0-1.6-0.2-2.1-0.4
		s-0.9-0.7-1.1-1.2s-0.4-1.1-0.5-1.7c-0.1-0.6-0.1-1.3-0.1-2L203.6,15.8L203.6,15.8z"/>
	<path class="st4" d="M212.6,8.3h2V11h-2V8.3z M212.7,14.3h1.7v15.4h-1.7V14.3z"/>
	<path class="st4" d="M225.5,30.3c-1.1,0-2.2-0.2-3-0.6s-1.6-0.9-2.3-1.6s-1.1-1.6-1.4-2.6s-0.5-2.1-0.5-3.4c0-1.3,0.2-2.4,0.5-3.4
		s0.8-1.9,1.5-2.6c0.6-0.7,1.4-1.3,2.3-1.7s1.9-0.6,3-0.6s2.1,0.2,3,0.6s1.7,0.9,2.3,1.6c0.6,0.7,1.1,1.6,1.4,2.6s0.5,2.1,0.5,3.3
		c0,1.3-0.2,2.4-0.5,3.4s-0.8,1.9-1.5,2.6c-0.6,0.7-1.4,1.3-2.3,1.7S226.6,30.3,225.5,30.3z M225.5,28.8c1,0,1.8-0.2,2.5-0.5
		s1.2-0.8,1.7-1.4c0.4-0.6,0.8-1.3,1-2.1c0.2-0.8,0.3-1.7,0.3-2.7c0-0.9-0.1-1.8-0.3-2.6c-0.2-0.8-0.5-1.5-1-2.1
		c-0.4-0.6-1-1.1-1.7-1.4c-0.7-0.3-1.5-0.5-2.5-0.5c-1,0-1.8,0.2-2.5,0.5c-0.7,0.3-1.3,0.8-1.7,1.4c-0.4,0.6-0.8,1.3-0.9,2.1
		c-0.2,0.8-0.3,1.7-0.3,2.6c0,0.9,0.1,1.8,0.3,2.6s0.5,1.5,0.9,2.1s1,1.1,1.7,1.4C223.7,28.6,224.6,28.8,225.5,28.8z"/>
	<path class="st4" d="M236.5,14.3h1.7v2.5c0.8-1.1,1.7-1.8,2.7-2.3c1-0.5,2-0.7,3-0.7c1.8,0,3.1,0.5,3.9,1.5s1.3,2.4,1.3,4.2v10.3
		h-1.7V20c0-1.6-0.3-2.8-0.9-3.5c-0.6-0.7-1.5-1.1-2.8-1.1c-0.6,0-1.2,0.1-1.9,0.3c-0.7,0.2-1.3,0.6-1.8,1.1c-0.6,0.5-1,1.1-1.4,1.6
		c-0.3,0.6-0.5,1.3-0.5,2.3v9.1h-1.7L236.5,14.3L236.5,14.3z"/>
</g>
</svg>
